# xmcd
#
# Track frame offsets: 
#        150
#        16990
#        30546
#        45526
#        62288
#
# Disc length: 1052 seconds
#
# Revision: 0
# Processed by: cddbd v1.5.2PL0 Copyright (c) Steve Scherf et al.
# Submitted via: ExactAudioCopy v1.0b1
#
DISCID=2f041a05
DTITLE=Andrea Marie - Dancing In The Rain
DYEAR=2011
DGENRE=Texas Country
TTITLE0=Tell Me Te Amo
TTITLE1=Natural High
TTITLE2=These Boots Are Made For Walkin'
TTITLE3=Dance In The Rain
TTITLE4=Magnolia Tree
EXTD=
EXTT0=
EXTT1=
EXTT2=
EXTT3=
EXTT4=
PLAYORDER=
